<?xml version="1.0" ?><!DOCTYPE svg  PUBLIC '-//W3C//DTD SVG 1.1//EN'  'http://www.w3.org/Graphics/SVG/1.1/DTD/svg11.dtd'><svg enable-background="new 0 0 50 50" height="50px" id="Layer_1" version="1.1" viewBox="0 0 50 50" width="50px" xml:space="preserve" xmlns="http://www.w3.org/2000/svg" xmlns:xlink="http://www.w3.org/1999/xlink"><rect fill="none" height="50" width="50"/><circle cx="25" cy="27" fill="none" r="22" stroke="#000000" stroke-linecap="round" stroke-miterlimit="10" stroke-width="2"/><line fill="none" stroke="#000000" stroke-linecap="round" stroke-miterlimit="10" stroke-width="2" x1="25" x2="25" y1="27" y2="11"/><line fill="none" stroke="#000000" stroke-linecap="round" stroke-miterlimit="10" stroke-width="2" x1="25" x2="15" y1="27" y2="27"/><line fill="none" stroke="#000000" stroke-linecap="round" stroke-miterlimit="10" stroke-width="2" x1="9.639" x2="4" y1="43.361" y2="49"/><line fill="none" stroke="#000000" stroke-linecap="round" stroke-miterlimit="10" stroke-width="2" x1="40.361" x2="46" y1="43.361" y2="49"/><path d="M47.859,14  C48.582,12.731,49,11.268,49,9.703C49,4.896,45.104,1,40.297,1C38.732,1,37.269,1.418,36,2.141L47.859,14z" fill="none" stroke="#000000" stroke-linecap="round" stroke-miterlimit="10" stroke-width="2"/><path d="M2.141,14  C1.418,12.731,1,11.268,1,9.703C1,4.896,4.896,1,9.703,1C11.268,1,12.731,1.418,14,2.141L2.141,14z" fill="none" stroke="#000000" stroke-linecap="round" stroke-miterlimit="10" stroke-width="2"/></svg>